{"title":"American.Gothic.2016.S01E10.720p.hdtv.X265.HEVC.mkv","uid":15651313,"size":168259257,"categoryP":"video","categoryS":"hd___tv_shows","magnet":"?xt=urn:btih:594316f14aa1461d8807a9d8c3b696cf39149ea9&amp;dn=American.Gothic.2016.S01E10.720p.hdtv.X265.HEVC.mkv&amp;tr=udp%3A%2F%2Ftracker.leechers-paradise.org%3A6969&amp;tr=udp%3A%2F%2Fzer0day.ch%3A1337&amp;tr=udp%3A%2F%2Fopen.demonii.com%3A1337&amp;tr=udp%3A%2F%2Ftracker.coppersurfer.tk%3A6969&amp;tr=udp%3A%2F%2Fexodus.desync.com%3A6969","seeders":0,"leechers":1,"uploader":"Beastmaster1111","files":1,"time":1472095025,"description":"IF YOU HAVE AN OLD COMPUTER DON`T DOWNLOAD, IT`S X265\r\n\r\nRMTEAM encode\r\n\r\nVideo\r\nID                          : 1\r\nFormat                      : HEVC\r\nFormat/Info                 : High Efficiency Video Coding\r\n\r\nDuration                    : 42 min\r\nBit rate                    : 446 kb/s\r\nWidth                       : 1 280 pixels\r\nHeight                      : 720 pixels\r\nDisplay aspect ratio        : 16:9\r\nFrame rate mode             : Variable\r\nFrame rate                  : 23.976 FPS\r\nBit depth                   : 8 bits\r\nStream size                 : 135 MiB (84%)\r\nWriting library             : x265 1.9+147-19cced21060f:[Linux][GCC 5.3.1][64 bit] \r\n\r\nAudio\r\nID                          : 2\r\nFormat                      : AAC\r\nBit rate                    : 81.0 kb/s\r\nChannel(s)                  : 2 channels\r\nSampling rate               : 48.0 kHz\r\nStream size                 : 24.6 MiB (15%)","torrent":{"xt":"urn:btih:594316f14aa1461d8807a9d8c3b696cf39149ea9","amp;dn":"American.Gothic.2016.S01E10.720p.hdtv.X265.HEVC.mkv","amp;tr":["udp%3A%2F%2Ftracker.leechers-paradise.org%3A6969","udp%3A%2F%2Fzer0day.ch%3A1337","udp%3A%2F%2Fopen.demonii.com%3A1337","udp%3A%2F%2Ftracker.coppersurfer.tk%3A6969","udp%3A%2F%2Fexodus.desync.com%3A6969"],"infoHash":"594316f14aa1461d8807a9d8c3b696cf39149ea9","infoHashBuffer":{"type":"Buffer","data":[89,67,22,241,74,161,70,29,136,7,169,216,195,182,150,207,57,20,158,169]},"announce":[],"urlList":[]}}